<svg width="20" height="20" viewBox="0 0 20 20" fill="none" xmlns="http://www.w3.org/2000/svg">
<path fill-rule="evenodd" clip-rule="evenodd" d="M11.5 1.75C11.5 1.45163 11.6185 1.16548 11.8295 0.954505C12.0405 0.743526 12.3266 0.625 12.625 0.625H18.25C18.5484 0.625 18.8345 0.743526 19.0455 0.954505C19.2565 1.16548 19.375 1.45163 19.375 1.75V7.375C19.375 7.67337 19.2565 7.95952 19.0455 8.1705C18.8345 8.38147 18.5484 8.5 18.25 8.5C17.9516 8.5 17.6655 8.38147 17.4545 8.1705C17.2435 7.95952 17.125 7.67337 17.125 7.375V2.875H12.625C12.3266 2.875 12.0405 2.75647 11.8295 2.5455C11.6185 2.33452 11.5 2.04837 11.5 1.75Z" fill="white"/>
<path fill-rule="evenodd" clip-rule="evenodd" d="M19.0443 0.954987C19.255 1.16592 19.3733 1.45186 19.3733 1.74999C19.3733 2.04811 19.255 2.33405 19.0443 2.54499L12.2943 9.29499C12.081 9.49371 11.799 9.60189 11.5075 9.59675C11.216 9.59161 10.938 9.47354 10.7318 9.26742C10.5257 9.0613 10.4077 8.78322 10.4025 8.49177C10.3974 8.20032 10.5056 7.91825 10.7043 7.70499L17.4543 0.954987C17.6652 0.744311 17.9512 0.625977 18.2493 0.625977C18.5474 0.625977 18.8333 0.744311 19.0443 0.954987Z" fill="white"/>
<path fill-rule="evenodd" clip-rule="evenodd" d="M2.875 5.875H8.5C8.79837 5.875 9.08452 5.75647 9.2955 5.5455C9.50647 5.33452 9.625 5.04837 9.625 4.75C9.625 4.45163 9.50647 4.16548 9.2955 3.9545C9.08452 3.74353 8.79837 3.625 8.5 3.625H2.5C2.00272 3.625 1.52581 3.82254 1.17417 4.17417C0.822544 4.52581 0.625 5.00272 0.625 5.5V17.5C0.625 17.9973 0.822544 18.4742 1.17417 18.8258C1.52581 19.1775 2.00272 19.375 2.5 19.375H14.5C14.9973 19.375 15.4742 19.1775 15.8258 18.8258C16.1775 18.4742 16.375 17.9973 16.375 17.5V11.5C16.375 11.2016 16.2565 10.9155 16.0455 10.7045C15.8345 10.4935 15.5484 10.375 15.25 10.375C14.9516 10.375 14.6655 10.4935 14.4545 10.7045C14.2435 10.9155 14.125 11.2016 14.125 11.5V17.125H2.875V5.875Z" fill="white"/>
</svg>
