<svg width="167" height="30" viewBox="0 0 167 30" fill="none" xmlns="http://www.w3.org/2000/svg">
<path fill-rule="evenodd" clip-rule="evenodd" d="M0.529798 5.29652C0 6.57557 0 8.19704 0 11.44V18.4C0 21.643 0 23.2644 0.529798 24.5435C1.2362 26.2489 2.59113 27.6038 4.29652 28.3102C5.57557 28.84 7.19704 28.84 10.44 28.84H17.4C20.643 28.84 22.2644 28.84 23.5435 28.3102C25.2489 27.6038 26.6038 26.2489 27.3102 24.5435C27.84 23.2644 27.84 21.643 27.84 18.4V11.44C27.84 8.19705 27.84 6.57557 27.3102 5.29652C26.6038 3.59113 25.2489 2.2362 23.5435 1.5298C22.2644 1 20.643 1 17.4 1H10.44C7.19705 1 5.57557 1 4.29652 1.5298C2.59113 2.2362 1.2362 3.59113 0.529798 5.29652ZM16.0554 8.62219C16.0853 8.51389 15.9592 8.4306 15.8713 8.50061L8.10196 14.691C8.02781 14.75 8.052 14.8683 8.14339 14.8935L12.2848 16.0363C12.3466 16.0533 12.3828 16.1172 12.3658 16.1789L11.0516 20.9416C11.0217 21.0499 11.1478 21.1332 11.2357 21.0631L19.0051 14.8728C19.0792 14.8137 19.055 14.6955 18.9636 14.6703L14.8222 13.5275C14.7605 13.5104 14.7242 13.4466 14.7413 13.3848L16.0554 8.62219Z" fill="#153885"/>
<path d="M40.3784 22.42L36.2165 7.87459H39.5759L41.9836 17.9811H42.1043L44.7605 7.87459H47.637L50.2861 18.0024H50.414L52.8216 7.87459H56.181L52.0191 22.42H49.0219L46.252 12.9101H46.1384L43.3756 22.42H40.3784ZM61.2798 22.6331C60.1577 22.6331 59.1918 22.4058 58.3821 21.9513C57.5772 21.492 56.9569 20.8433 56.5213 20.0053C56.0857 19.1625 55.8679 18.1658 55.8679 17.0152C55.8679 15.8931 56.0857 14.9082 56.5213 14.0607C56.9569 13.2131 57.5701 12.5526 58.3608 12.0791C59.1563 11.6056 60.089 11.3689 61.1591 11.3689C61.8788 11.3689 62.5488 11.4849 63.1691 11.7169C63.7941 11.9442 64.3386 12.2875 64.8026 12.7467C65.2713 13.206 65.6359 13.7837 65.8963 14.4797C66.1567 15.171 66.287 15.9806 66.287 16.9087V17.7396H57.0753V15.8646H63.4389C63.4389 15.429 63.3442 15.0431 63.1548 14.707C62.9655 14.3708 62.7027 14.108 62.3665 13.9186C62.0351 13.7245 61.6492 13.6274 61.2088 13.6274C60.7495 13.6274 60.3423 13.734 59.9872 13.947C59.6369 14.1554 59.3622 14.4371 59.1634 14.7922C58.9645 15.1426 58.8627 15.5332 58.858 15.9641V17.7467C58.858 18.2865 58.9574 18.7529 59.1563 19.1459C59.3599 19.5389 59.6463 19.8419 60.0156 20.055C60.385 20.2681 60.8229 20.3746 61.3296 20.3746C61.6657 20.3746 61.9735 20.3272 62.2529 20.2325C62.5322 20.1378 62.7713 19.9958 62.9702 19.8064C63.1691 19.617 63.3206 19.385 63.4247 19.1104L66.223 19.295C66.081 19.9674 65.7898 20.5545 65.3495 21.0564C64.9138 21.5536 64.3504 21.9418 63.6591 22.2212C62.9726 22.4958 62.1795 22.6331 61.2798 22.6331ZM71.0822 22.626C70.3862 22.626 69.7659 22.5053 69.2214 22.2638C68.6769 22.0176 68.246 21.6554 67.9288 21.1771C67.6163 20.6942 67.46 20.0929 67.46 19.3732C67.46 18.7671 67.5713 18.2581 67.7938 17.8462C68.0164 17.4342 68.3194 17.1028 68.7029 16.8519C69.0864 16.6009 69.522 16.4115 70.0097 16.2837C70.5022 16.1558 71.0183 16.0659 71.558 16.0138C72.1925 15.9475 72.7039 15.886 73.0921 15.8291C73.4804 15.7676 73.7621 15.6776 73.9373 15.5592C74.1125 15.4409 74.2001 15.2657 74.2001 15.0337V14.9911C74.2001 14.5413 74.058 14.1932 73.7739 13.947C73.4946 13.7008 73.0969 13.5777 72.5808 13.5777C72.0363 13.5777 71.603 13.6985 71.281 13.9399C70.9591 14.1767 70.746 14.475 70.6418 14.8348L67.8435 14.6075C67.9856 13.9447 68.2649 13.3717 68.6816 12.8888C69.0983 12.4011 69.6357 12.027 70.2938 11.7666C70.9567 11.5015 71.7238 11.3689 72.595 11.3689C73.201 11.3689 73.781 11.4399 74.335 11.582C74.8937 11.724 75.3885 11.9442 75.8194 12.2425C76.255 12.5408 76.5983 12.9243 76.8492 13.3931C77.1002 13.8571 77.2256 14.4134 77.2256 15.0621V22.42H74.3563V20.9073H74.2711C74.0959 21.2482 73.8615 21.5488 73.568 21.8092C73.2744 22.0649 72.9217 22.2662 72.5097 22.4129C72.0978 22.555 71.622 22.626 71.0822 22.626ZM71.9487 20.5379C72.3937 20.5379 72.7867 20.4503 73.1276 20.2752C73.4685 20.0952 73.7361 19.8538 73.9302 19.5507C74.1243 19.2477 74.2214 18.9044 74.2214 18.5209V17.3632C74.1267 17.4248 73.9965 17.4816 73.8308 17.5337C73.6698 17.581 73.4875 17.626 73.2839 17.6686C73.0803 17.7065 72.8767 17.742 72.6731 17.7752C72.4695 17.8036 72.2848 17.8296 72.1191 17.8533C71.764 17.9054 71.4539 17.9882 71.1887 18.1019C70.9236 18.2155 70.7176 18.3694 70.5708 18.5635C70.424 18.7529 70.3506 18.9896 70.3506 19.2737C70.3506 19.6857 70.4998 20.0005 70.7981 20.2183C71.1011 20.4314 71.4846 20.5379 71.9487 20.5379ZM85.0855 11.511V13.7837H78.5159V11.511H85.0855ZM80.0074 8.89732H83.0329V19.0678C83.0329 19.3471 83.0756 19.5649 83.1608 19.7212C83.246 19.8727 83.3644 19.9792 83.5159 20.0408C83.6722 20.1023 83.8521 20.1331 84.0557 20.1331C84.1977 20.1331 84.3398 20.1213 84.4818 20.0976C84.6239 20.0692 84.7328 20.0479 84.8085 20.0337L85.2844 22.2851C85.1329 22.3324 84.9198 22.3869 84.6452 22.4485C84.3705 22.5147 84.0367 22.555 83.6437 22.5692C82.9146 22.5976 82.2754 22.5005 81.7261 22.278C81.1816 22.0555 80.7579 21.7098 80.4548 21.2411C80.1518 20.7723 80.0026 20.1805 80.0074 19.4655V8.89732ZM90.0263 16.1132V22.42H87.0008V7.87459H89.9411V13.4357H90.0689C90.3152 12.7917 90.7129 12.2875 91.2621 11.9229C91.8114 11.5536 92.5003 11.3689 93.3289 11.3689C94.0865 11.3689 94.747 11.5346 95.3104 11.8661C95.8786 12.1928 96.3189 12.6639 96.6314 13.2794C96.9487 13.8902 97.1049 14.6217 97.1002 15.474V22.42H94.0746V16.0138C94.0794 15.3414 93.9089 14.8182 93.5633 14.4442C93.2224 14.0701 92.7441 13.8831 92.1286 13.8831C91.7167 13.8831 91.3521 13.9707 91.0349 14.1459C90.7224 14.3211 90.4761 14.5768 90.2962 14.9129C90.121 15.2444 90.0311 15.6445 90.0263 16.1132ZM104.163 22.6331C103.041 22.6331 102.075 22.4058 101.265 21.9513C100.46 21.492 99.8399 20.8433 99.4043 20.0053C98.9687 19.1625 98.7509 18.1658 98.7509 17.0152C98.7509 15.8931 98.9687 14.9082 99.4043 14.0607C99.8399 13.2131 100.453 12.5526 101.244 12.0791C102.039 11.6056 102.972 11.3689 104.042 11.3689C104.762 11.3689 105.432 11.4849 106.052 11.7169C106.677 11.9442 107.222 12.2875 107.686 12.7467C108.154 13.206 108.519 13.7837 108.779 14.4797C109.04 15.171 109.17 15.9806 109.17 16.9087V17.7396H99.9583V15.8646H106.322C106.322 15.429 106.227 15.0431 106.038 14.707C105.848 14.3708 105.586 14.108 105.249 13.9186C104.918 13.7245 104.532 13.6274 104.092 13.6274C103.633 13.6274 103.225 13.734 102.87 13.947C102.52 14.1554 102.245 14.4371 102.046 14.7922C101.847 15.1426 101.746 15.5332 101.741 15.9641V17.7467C101.741 18.2865 101.84 18.7529 102.039 19.1459C102.243 19.5389 102.529 19.8419 102.899 20.055C103.268 20.2681 103.706 20.3746 104.213 20.3746C104.549 20.3746 104.856 20.3272 105.136 20.2325C105.415 20.1378 105.654 19.9958 105.853 19.8064C106.052 19.617 106.204 19.385 106.308 19.1104L109.106 19.295C108.964 19.9674 108.673 20.5545 108.232 21.0564C107.797 21.5536 107.233 21.9418 106.542 22.2212C105.856 22.4958 105.062 22.6331 104.163 22.6331ZM110.854 22.42V11.511H113.788V13.4144H113.901C114.1 12.7373 114.434 12.2259 114.903 11.8803C115.371 11.5299 115.911 11.3547 116.522 11.3547C116.673 11.3547 116.837 11.3642 117.012 11.3831C117.187 11.4021 117.341 11.4281 117.474 11.4612V14.1459C117.332 14.1033 117.135 14.0654 116.884 14.0323C116.633 13.9991 116.404 13.9825 116.195 13.9825C115.75 13.9825 115.352 14.0796 115.002 14.2737C114.656 14.4631 114.382 14.7283 114.178 15.0692C113.979 15.4101 113.88 15.8031 113.88 16.2482V22.42H110.854ZM123.144 22.42V7.87459H128.882C129.981 7.87459 130.918 8.07108 131.695 8.46408C132.476 8.85233 133.07 9.40394 133.477 10.1189C133.889 10.8291 134.095 11.6648 134.095 12.626C134.095 13.5919 133.887 14.4229 133.47 15.1189C133.054 15.8102 132.45 16.3405 131.659 16.7098C130.873 17.0791 129.922 17.2638 128.804 17.2638H124.962V14.7922H128.307C128.894 14.7922 129.382 14.7117 129.77 14.5507C130.158 14.3897 130.447 14.1483 130.637 13.8263C130.831 13.5043 130.928 13.1042 130.928 12.626C130.928 12.1431 130.831 11.7359 130.637 11.4044C130.447 11.073 130.156 10.822 129.763 10.6516C129.375 10.4764 128.885 10.3888 128.293 10.3888H126.219V22.42H123.144ZM130.999 15.8007L134.614 22.42H131.219L127.682 15.8007H130.999ZM138.457 7.87459V9.40868C138.457 9.84428 138.372 10.2894 138.202 10.7439C138.036 11.1937 137.813 11.6199 137.534 12.0223C137.255 12.42 136.949 12.7586 136.618 13.0379L135.283 12.2496C135.519 11.8755 135.728 11.4612 135.908 11.0067C136.092 10.5521 136.185 10.0242 136.185 9.42288V7.87459H138.457ZM149.224 7.87459H152.299V17.3206C152.299 18.3812 152.046 19.3092 151.539 20.1047C151.037 20.9002 150.334 21.5204 149.43 21.9655C148.525 22.4058 147.472 22.626 146.269 22.626C145.062 22.626 144.006 22.4058 143.102 21.9655C142.197 21.5204 141.494 20.9002 140.992 20.1047C140.49 19.3092 140.239 18.3812 140.239 17.3206V7.87459H143.315V17.0578C143.315 17.6118 143.435 18.1042 143.677 18.5351C143.923 18.966 144.269 19.3045 144.714 19.5507C145.159 19.7969 145.677 19.92 146.269 19.92C146.866 19.92 147.384 19.7969 147.825 19.5507C148.27 19.3045 148.613 18.966 148.855 18.5351C149.101 18.1042 149.224 17.6118 149.224 17.0578V7.87459ZM162.43 12.0578C162.373 11.4849 162.129 11.0398 161.698 10.7226C161.268 10.4054 160.683 10.2467 159.944 10.2467C159.442 10.2467 159.018 10.3178 158.673 10.4598C158.327 10.5971 158.062 10.7889 157.877 11.0351C157.697 11.2813 157.607 11.5607 157.607 11.8732C157.598 12.1336 157.652 12.3609 157.771 12.555C157.894 12.7491 158.062 12.9172 158.275 13.0592C158.488 13.1966 158.734 13.3173 159.014 13.4215C159.293 13.5209 159.591 13.6061 159.909 13.6771L161.215 13.9896C161.85 14.1317 162.432 14.3211 162.963 14.5578C163.493 14.7946 163.952 15.0858 164.34 15.4314C164.729 15.7771 165.029 16.1842 165.242 16.653C165.46 17.1217 165.572 17.6592 165.576 18.2652C165.572 19.1554 165.344 19.9271 164.894 20.5806C164.449 21.2292 163.805 21.7335 162.963 22.0933C162.125 22.4485 161.114 22.626 159.93 22.626C158.756 22.626 157.733 22.4461 156.862 22.0862C155.995 21.7264 155.318 21.1937 154.83 20.4882C154.348 19.778 154.094 18.8997 154.071 17.8533H157.046C157.08 18.341 157.219 18.7482 157.465 19.0749C157.716 19.3968 158.05 19.6407 158.467 19.8064C158.888 19.9674 159.364 20.0479 159.894 20.0479C160.415 20.0479 160.867 19.9721 161.251 19.8206C161.639 19.6691 161.94 19.4584 162.153 19.1885C162.366 18.9186 162.473 18.6085 162.473 18.2581C162.473 17.9314 162.375 17.6568 162.181 17.4342C161.992 17.2117 161.713 17.0223 161.343 16.8661C160.979 16.7098 160.531 16.5678 160.001 16.4399L158.417 16.0422C157.191 15.7439 156.223 15.2775 155.512 14.6431C154.802 14.0086 154.449 13.1539 154.454 12.0791C154.449 11.1985 154.684 10.429 155.157 9.7709C155.635 9.11275 156.291 8.59902 157.125 8.2297C157.958 7.86038 158.905 7.67572 159.965 7.67572C161.045 7.67572 161.987 7.86038 162.792 8.2297C163.602 8.59902 164.232 9.11275 164.681 9.7709C165.131 10.429 165.363 11.1913 165.377 12.0578H162.43Z" fill="#0F172A"/>
</svg>
