<svg width="182" height="134" viewBox="0 0 182 134" fill="none" xmlns="http://www.w3.org/2000/svg">
<path d="M141.247 101.527C141.247 84.5067 126.632 70.6317 108.687 70.6317C90.7424 70.6317 76.1274 84.4142 76.1274 101.527V132.422H109.057C126.817 132.144 141.247 118.454 141.247 101.527Z" fill="#EAEAEA" fill-opacity="0.39"/>
<path d="M120.713 100.046C120.713 90.2398 116.272 81.4523 109.335 75.4398C109.428 74.5148 109.52 73.5898 109.52 72.6648C109.52 54.8133 94.9059 40.2908 76.96 40.2908C59.015 40.2908 44.4 54.8133 44.4 72.6648C44.4 72.9433 44.4 73.3133 44.4934 73.5898C40.4225 71.5558 35.7975 70.4458 30.9875 70.4458C13.875 70.4458 0 84.3208 0 101.433C0 118.176 13.32 131.773 29.97 132.327V132.421H89.725V132.327C106.837 131.588 120.713 117.436 120.713 100.046Z" fill="#F7F7F7" fill-opacity="0.68"/>
<path d="M144.226 36.8116C143.432 35.454 143.944 33.7623 145.221 33.0155L151.211 29.5148C152.568 28.7214 154.26 29.2318 155.007 30.5104C155.8 31.8672 155.289 33.5596 154.011 34.3065L148.022 37.8071C146.744 38.5539 145.019 38.1684 144.226 36.8116ZM123.889 18.6982C122.484 18.1268 121.79 16.3895 122.488 15.0173L125.225 8.70217C125.797 7.29679 127.535 6.60366 128.907 7.30162C130.312 7.87225 131.006 9.60948 130.308 10.9825L127.57 17.2961C126.998 18.7014 125.341 19.3487 123.889 18.6982ZM97.0523 17.0932C95.5604 17.3674 94.0403 16.2769 93.8904 14.7446L92.8007 7.94912C92.5262 6.45643 93.617 4.93708 95.1489 4.78638C96.6408 4.51226 98.1601 5.60314 98.3109 7.13502L99.4005 13.9305C99.6759 15.4227 98.6269 16.8597 97.0523 17.0932ZM73.3289 29.7138C72.2846 30.8599 70.5068 30.9346 69.4074 29.9701L64.2567 25.3735C63.1106 24.3292 63.0354 22.5507 63.9999 21.4512C65.0443 20.3051 66.8224 20.2312 67.9219 21.1957L73.0721 25.7914C74.2986 26.7899 74.3733 28.5676 73.3289 29.7138ZM62.3971 54.6383C62.2053 56.1433 60.8279 57.2697 59.3692 57.1569L52.5243 56.4444C51.0194 56.2526 49.8925 54.8745 50.0049 53.417C50.1968 51.9121 51.5741 50.7857 53.0319 50.8968L59.8777 51.6109C61.4625 51.7561 62.5889 53.1334 62.3971 54.6383ZM68.1989 81.2466C68.992 82.6035 68.4812 84.2959 67.2034 85.0427L61.2139 88.5434C59.8563 89.3369 58.1646 88.8256 57.4178 87.5478C56.6243 86.1902 57.1356 84.4986 58.4134 83.7518L64.4029 80.2511C65.7605 79.4576 67.4055 79.889 68.1989 81.2466ZM88.5353 99.36C89.9407 99.9315 90.6347 101.669 89.9362 103.04L87.1988 109.355C86.6274 110.761 84.8902 111.455 83.5175 110.756C82.1126 110.185 81.4186 108.448 82.1161 107.075L84.8545 100.761C85.4259 99.356 87.0833 98.7087 88.5353 99.36ZM115.617 102.067C117.128 101.72 118.64 102.657 118.908 104.215L120.385 110.958C120.733 112.47 119.795 113.981 118.237 114.25C116.726 114.597 115.213 113.659 114.946 112.102L113.469 105.357C113.122 103.847 114.106 102.415 115.617 102.067ZM139.096 88.3445C140.14 87.1984 141.917 87.1228 143.017 88.0874L148.168 92.6847C149.314 93.7283 149.389 95.5068 148.424 96.6062C147.38 97.7523 145.602 97.8263 144.502 96.8617L139.352 92.266C138.206 91.2216 138.051 89.4906 139.096 88.3445ZM150.028 63.4199C150.219 61.9142 151.596 60.7877 153.055 60.9005L159.9 61.613C161.405 61.8048 162.532 63.183 162.419 64.6404C162.228 66.1454 160.851 67.2726 159.392 67.1606L152.547 66.4465C151.042 66.2547 149.836 64.9248 150.028 63.4199Z" fill="#ECA914"/>
<path d="M71.8726 59.0682C71.8642 78.0215 87.2229 93.3931 106.175 93.4014C125.129 93.4098 140.499 78.052 140.508 59.0987V59.0682C140.51 40.115 125.149 24.7489 106.196 24.7461C87.2424 24.7424 71.8753 40.1039 71.8726 59.0571V59.0682Z" fill="#ECA914"/>
</svg>
